<svg xmlns="http://www.w3.org/2000/svg" viewBox="0 0 50 50" width="50px" height="50px">
    <path fill="#5865F2"
        d="M 44 2 L 36 10 L 13 10 C 8.957031 10 6 12.957031 6 17 L 6 41 C 6 45.367188 8.515625 48 13 48 L 37 48 C 41.042969 48 44 45.042969 44 41 Z M 42 6.828125 L 42 42 L 41.910156 42 C 41.496094 44.398438 39.597656 46 37 46 L 13 46 C 9.683594 46 8 44.316406 8 41 L 8 17 C 8 14.054688 10.054688 12 13 12 L 36.828125 12 Z M 17 18 C 14.757813 18 13 19.757813 13 22 L 13 37 C 13 39.242188 14.757813 41 17 41 L 41 41 L 41 39 L 39.414063 37.585938 L 36 34.171875 L 36 22 C 36 19.757813 34.242188 18 32 18 Z M 17 20 L 32 20 C 33.15625 20 34 20.84375 34 22 L 34 35 L 38 39 L 17 39 C 15.84375 39 15 38.15625 15 37 L 15 22 C 15 20.84375 15.84375 20 17 20 Z" />
</svg>